<svg width="25" height="24" viewBox="0 0 25 24" fill="none" xmlns="http://www.w3.org/2000/svg">
<path d="M9.5 17H15.5M9.5 14H15.5M19.4996 9H15.0996C14.5396 9 14.2598 8.99998 14.0459 8.89099C13.8577 8.79512 13.7049 8.64218 13.609 8.45401C13.5 8.2401 13.5 7.96005 13.5 7.4V3M19.5 17.8V9.65399C19.5 9.19048 19.5002 8.95872 19.4502 8.73932C19.4059 8.54475 19.3328 8.35788 19.2332 8.18499C19.1208 7.99002 18.9632 7.81997 18.6483 7.47986L15.4502 4.02588C15.1002 3.64789 14.925 3.45888 14.7168 3.32343C14.5322 3.20337 14.3286 3.11464 14.1151 3.06077C13.8743 3 13.6172 3 13.1021 3H8.7002C7.58009 3 7.01962 3 6.5918 3.21799C6.21547 3.40973 5.90973 3.71572 5.71799 4.09204C5.5 4.51986 5.5 5.07991 5.5 6.20001V17.8C5.5 18.9201 5.5 19.4801 5.71799 19.908C5.90973 20.2843 6.21547 20.5902 6.5918 20.782C7.01962 21 7.58009 21 8.7002 21H16.3002C17.4203 21 17.98 21 18.4078 20.782C18.7841 20.5902 19.0905 20.2843 19.2822 19.908C19.5002 19.4801 19.5 18.9201 19.5 17.8Z" stroke="#00A7E7" stroke-width="2" stroke-linecap="round" stroke-linejoin="round"/>
</svg>
